<?xml version="1.0" encoding="utf-8"?>
<!-- Generator: Adobe Illustrator 24.2.1, SVG Export Plug-In . SVG Version: 6.00 Build 0)  -->
<svg version="1.1" id="Layer_1" xmlns="http://www.w3.org/2000/svg" xmlns:xlink="http://www.w3.org/1999/xlink" x="0px" y="0px"
	 viewBox="0 0 792 197" style="enable-background:new 0 0 792 197;" xml:space="preserve">
<style type="text/css">
	.st0{fill:#FFF;}
</style>
<g>
	<path class="st0" d="M44.1,86c-7.8,0-14-6.2-14-14s6.2-14,14-14s14,6.2,14,14S51.9,86,44.1,86z"/>
	<path class="st0" d="M129.6,86c-7.8,0-14-6.2-14-14s6.2-14,14-14s14,6.2,14,14S137.4,86,129.6,86z"/>
	<path class="st0" d="M133.4,161.7c1.2,5.4-2.8,10.4-8.4,10.4h-0.6c-4,0-7.6-2.8-8.4-6.8c-3.2-13.4-15.2-23.2-29.4-23.2
		s-26.2,9.8-29.2,23.2c-1,4-4.4,6.8-8.6,6.8h-0.4c-5.6,0-9.8-5-8.6-10.4c2.8-11.8,9.6-21.8,19-28.6c-9.4-6.8-16.2-16.8-19-28.4
		c-1.2-5.4,3-10.6,8.6-10.6h0.4c4.2,0,7.6,2.8,8.6,6.8c3,13.4,15,23.4,29.2,23.4s26.2-10,29.4-23.4c1-4,4.4-6.8,8.4-6.8h0.6
		c5.4,0,9.6,5.2,8.4,10.6c-2.6,11.6-9.6,21.6-19,28.4C123.8,139.9,130.8,149.9,133.4,161.7z"/>
	<path class="st0" d="M175.9,108.4c24.2,7.4,42.1,30.2,42.1,56.9c0,5.2-4.2,9.4-9.4,9.4s-9.4-4.2-9.4-9.4
		c0-22.4-18.4-40.7-40.9-40.7c-3,0-5.6-1.4-7.2-3.6c-0.1-0.1-0.3-0.2-0.4-0.2c-3.2-4-2.8-10,1.2-13.4c8.6-7,13.6-17.6,13.6-28.8
		c0-20.6-16.8-37.5-37.5-37.5c-20.8,0-37.7,16.8-37.7,37.5c0,5.2-4.2,9.4-9.4,9.4c-5.2,0-9.4-4.2-9.4-9.4c0-31,25.2-56.3,56.5-56.3
		c31,0,56.3,25.2,56.3,56.3C184.3,89.4,181.3,99.6,175.9,108.4z"/>
</g>
<g>
	<path class="st0" d="M282.2,161.7c-3.9,0-6.8-1.2-8.9-3.6c-2-2.4-3.1-5.8-3.1-10.2V46.5c0-4.5,1-7.9,3.1-10.3c2-2.3,5-3.5,8.9-3.5
		c3.8,0,6.7,1.2,8.7,3.5c2,2.3,3.1,5.7,3.1,10.3V89h-2.2c2.4-5.8,6-10.3,10.8-13.5c4.8-3.1,10.2-4.7,16.2-4.7c6.2,0,11.2,1.3,15.2,4
		c4,2.7,7,6.7,8.9,12.1c2,5.4,3,12.3,3,20.6V148c0,4.4-1,7.8-3.1,10.2c-2,2.4-5,3.6-8.9,3.6c-3.8,0-6.7-1.2-8.7-3.6
		c-2-2.4-3.1-5.8-3.1-10.2v-39.2c0-6.1-1-10.4-2.9-13.1c-1.9-2.7-4.9-4-8.9-4c-5,0-9,1.8-12,5.3c-3,3.6-4.5,8.3-4.5,14.3V148
		C294,157.1,290,161.7,282.2,161.7z"/>
	<path class="st0" d="M377.1,161.7c-4,0-7-1.2-9.1-3.6c-2.1-2.4-3.1-5.8-3.1-10.2V84.7c0-4.4,1-7.8,3.1-10.1c2-2.3,4.9-3.5,8.6-3.5
		c3.8,0,6.6,1.2,8.6,3.5c2,2.3,3,5.7,3,10.1v9.3h-1.6c1.3-7.1,4-12.7,8.3-16.6c4.3-3.9,9.8-6.1,16.6-6.6c2.6-0.2,4.6,0.5,6,2.2
		c1.4,1.7,2.2,4.5,2.3,8.5c0.2,3.7-0.4,6.6-2,8.7c-1.5,2.1-4.1,3.4-7.6,3.9l-3.6,0.4c-6,0.6-10.4,2.6-13.3,5.9
		c-2.9,3.3-4.3,8.1-4.3,14.4V148c0,4.4-1,7.8-3.1,10.2C383.9,160.5,380.9,161.7,377.1,161.7z"/>
	<path class="st0" d="M443.4,160.1c-2.3,0-4.2-0.7-5.8-2.1c-1.6-1.4-2.6-3.1-3.1-5.3c-0.5-2.1-0.5-4.5,0.1-7c0.6-2.5,1.8-4.8,3.5-7
		l38.5-52.4v6.2h-34.1c-2.8,0-5-0.9-6.6-2.7c-1.6-1.8-2.4-4.2-2.4-7.3c0-3.3,0.8-5.9,2.4-7.6c1.6-1.7,3.8-2.6,6.6-2.6h45.4
		c2.8,0,5.1,0.7,6.8,2.1c1.7,1.4,2.8,3.2,3.4,5.3c0.6,2.1,0.6,4.3,0.2,6.8c-0.5,2.4-1.6,4.7-3.4,6.9l-39.4,53.5v-7h36.4
		c6,0,8.9,3.3,8.9,10c0,3.2-0.8,5.7-2.4,7.4c-1.6,1.7-3.8,2.6-6.6,2.6H443.4z"/>
	<path class="st0" d="M541.3,160.3c-8-2.3-14.4-6-19.2-11.2c-4.9-5.2-8-11.6-9.3-19.2c-1.3-7.5-0.7-15.8,1.9-24.9
		c1.9-6.7,4.6-12.5,7.9-17.4c3.3-4.9,7.3-8.7,11.9-11.5c4.6-2.8,9.5-4.6,14.9-5.2c5.4-0.6,11.1-0.1,17,1.6c7.9,2.3,14.4,6,19.2,11.2
		c4.9,5.2,8,11.6,9.4,19c1.4,7.4,0.8,15.7-1.8,24.7c-2,6.9-4.6,12.7-8,17.5c-3.4,4.8-7.4,8.7-11.9,11.6c-4.5,2.9-9.5,4.7-15,5.3
		C552.9,162.5,547.2,162,541.3,160.3z M546.8,140.9c3.3,0.9,6.4,0.9,9.4-0.3c2.9-1.1,5.6-3.3,8.1-6.5c2.4-3.2,4.5-7.6,6.1-13.2
		c2.4-8.3,2.6-14.9,0.7-19.7c-1.9-4.8-5.3-7.9-10.2-9.3c-3.2-0.9-6.3-0.9-9.3,0.1c-3,1-5.6,3.1-8,6.3c-2.4,3.2-4.4,7.6-6,13.2
		c-2.4,8.3-2.6,15-0.8,19.9C538.6,136.4,542,139.5,546.8,140.9z"/>
	<path class="st0" d="M631.5,161.7c-3.9,0-6.8-1.2-8.9-3.6c-2-2.4-3.1-5.8-3.1-10.2V92.7h-5.7c-2.9,0-5.2-0.9-6.8-2.7
		c-1.6-1.8-2.4-4.2-2.4-7.3c0-3.3,0.8-5.9,2.4-7.6c1.6-1.7,3.9-2.6,6.8-2.6h12.6l-6.9,7.1v-5.5c0-12.7,2.8-22.2,8.4-28.5
		c5.6-6.3,13.8-10.1,24.7-11.4l5-0.5c2.7-0.2,4.9,0.2,6.5,1.4c1.6,1.2,2.7,2.7,3.2,4.6c0.5,1.9,0.6,3.8,0.3,5.8
		c-0.3,2-1,3.7-2.1,5.2c-1.1,1.5-2.6,2.3-4.5,2.4l-2.2,0.2c-5.7,0.5-9.7,2-12.1,4.5c-2.4,2.6-3.6,6.4-3.6,11.7v6.1l-3-3h21.3
		c3,0,5.3,0.9,6.9,2.6c1.6,1.7,2.4,4.2,2.4,7.6c0,3.1-0.8,5.5-2.4,7.3c-1.6,1.8-3.9,2.7-6.9,2.7h-18.3V148
		C643.3,157.1,639.3,161.7,631.5,161.7z"/>
	<path class="st0" d="M708.8,162c-7.2,0-13.3-1.4-18.1-4.1c-4.9-2.7-8.5-6.7-10.8-11.9c-2.4-5.2-3.5-11.8-3.5-19.8V92.7h-13.7
		c-2.9,0-5.2-0.9-6.8-2.7c-1.6-1.8-2.4-4.2-2.4-7.3c0-3.3,0.8-5.9,2.4-7.6c1.6-1.7,3.9-2.6,6.8-2.6h13.7V59c0-4.5,1-7.9,3.1-10.3
		c2.1-2.3,5-3.5,8.8-3.5c3.9,0,6.8,1.2,8.8,3.5c2,2.3,3,5.7,3,10.3v13.5H715c2.9,0,5.2,0.9,6.7,2.6c1.6,1.7,2.4,4.2,2.4,7.6
		c0,3.1-0.8,5.5-2.4,7.3c-1.6,1.8-3.8,2.7-6.7,2.7h-14.9v32.4c0,5,1,8.7,3.1,11.2c2,2.5,5.3,3.7,9.8,3.7c1.6,0,3-0.2,4.4-0.5
		c1.4-0.4,2.6-0.6,3.8-0.7c1.5-0.1,2.7,0.4,3.6,1.5c0.9,1.1,1.4,3.6,1.4,7.4c0,2.9-0.4,5.3-1.3,7.5c-0.8,2.1-2.3,3.7-4.4,4.6
		c-1.4,0.6-3.2,1.1-5.6,1.5C712.5,161.8,710.5,162,708.8,162z"/>
	<path class="st0" d="M749.5,162.1c-6.9,0-12.5-5.5-12.5-12.5c0-6.9,5.5-12.5,12.5-12.5s12.5,5.5,12.5,12.5
		C761.9,156.6,756.4,162.1,749.5,162.1z"/>
</g>
</svg>
